<svg width="35" height="34" viewBox="0 0 35 34" fill="none" xmlns="http://www.w3.org/2000/svg">
<g id="fi_2081688" clip-path="url(#clip0_7306_501)">
<path id="Vector" d="M31.5368 0H20.8675C19.175 0 17.7375 1.36525 17.7375 3.12993V19.1338C17.7375 19.5367 17.9802 19.8999 18.3524 20.0541C18.6969 20.1969 19.1321 20.144 19.4379 19.8383C19.4379 19.8383 22.4013 16.8754 23.3875 15.8866C23.4037 15.8712 23.4242 15.8623 23.4441 15.8623H31.5368C33.2499 15.8623 34.6667 14.4788 34.6667 12.7323V3.12999C34.6667 1.36498 33.2288 0 31.5368 0ZM29.4029 10.5276H23.0013C22.4512 10.5276 22.0052 10.0816 22.0052 9.53149C22.0052 8.98138 22.4512 8.53539 23.0013 8.53539H29.4029C29.953 8.53539 30.399 8.98138 30.399 9.53149C30.399 10.0816 29.953 10.5276 29.4029 10.5276ZM29.4029 6.25992H23.0013C22.4512 6.25992 22.0052 5.81393 22.0052 5.26382C22.0052 4.71371 22.4512 4.26773 23.0013 4.26773H29.4029C29.953 4.26773 30.399 4.71371 30.399 5.26382C30.399 5.81393 29.953 6.25992 29.4029 6.25992Z" fill="#222B27"/>
<path id="Vector_2" d="M26.9058 21.6297C25.9255 20.651 24.3437 20.6522 23.3639 21.6303L22.8305 22.1638C19.9832 25.0112 15.3502 25.011 12.5029 22.1638C9.65563 19.3165 9.65563 14.6836 12.5029 11.8363L13.0357 11.3034C13.9943 10.3466 14.035 8.75889 13.0364 7.76027L8.76805 3.49194C7.78968 2.51524 6.20782 2.51272 5.2262 3.49254L2.46709 6.25165C1.30611 7.41264 0.666748 8.95638 0.666748 10.5985C0.666748 16.311 2.7693 22.3943 7.52087 27.1459C12.2804 31.9054 18.3679 34 24.0682 34C25.7104 34 27.2542 33.3607 28.4151 32.1997L31.1735 29.4412C32.1339 28.4826 32.1711 26.895 31.1742 25.8981L26.9058 21.6297Z" fill="#222B27"/>
</g>
<defs>
<clipPath id="clip0_7306_501">
<rect width="34" height="34" fill="white" transform="translate(0.666748)"/>
</clipPath>
</defs>
</svg>
