<svg width="34" height="34" viewBox="0 0 34 34" fill="none" xmlns="http://www.w3.org/2000/svg">
<g id="fi_4457134" clip-path="url(#clip0_7306_467)">
<g id="Group">
<path id="Vector" d="M25.9434 0.226562C21.6463 0.226562 18.1504 3.72241 18.1504 8.01938C18.1504 12.3163 21.6463 15.8122 25.9434 15.8122C30.2404 15.8122 33.7363 12.3163 33.7363 8.01938C33.7363 3.72241 30.2404 0.226562 25.9434 0.226562ZM27.3906 10.2422C27.3906 10.857 26.8922 11.3554 26.2773 11.3554C25.6625 11.3554 25.1641 10.857 25.1641 10.2422V7.28113C25.1566 7.27868 24.3672 7.29746 24.1079 6.51964C23.9135 5.93636 24.2288 5.30587 24.812 5.11142L25.9253 4.74032C26.6461 4.5003 27.3907 5.03757 27.3907 5.79646V10.2422H27.3906Z" fill="#222B27"/>
<path id="Vector_2" d="M19.7455 15.8863H5.52949C4.91466 15.8863 4.41621 15.3879 4.41621 14.773C4.41621 14.1582 4.91466 13.6598 5.52949 13.6598H17.6668C16.3448 11.7261 15.7447 9.40517 15.9704 7.05444H5.83008C2.76076 7.05444 0.263672 9.55146 0.263672 12.6207V21.6752C0.263672 24.3881 2.21466 26.654 4.7873 27.1435V32.6592C4.7873 33.6469 5.97807 34.1405 6.67892 33.4552L13.0341 27.2414H21.4865C24.5558 27.2414 27.0529 24.7444 27.0529 21.6752V17.9768C24.4176 18.2685 21.8118 17.5176 19.7455 15.8863ZM20.3732 20.3393H5.52949C4.91466 20.3393 4.41621 19.8408 4.41621 19.226C4.41621 18.6112 4.91466 18.1127 5.52949 18.1127H20.3732C20.9881 18.1127 21.4865 18.6112 21.4865 19.226C21.4865 19.8409 20.9881 20.3393 20.3732 20.3393Z" fill="#222B27"/>
</g>
</g>
<defs>
<clipPath id="clip0_7306_467">
<rect width="34" height="34" fill="white"/>
</clipPath>
</defs>
</svg>
