<svg width="35" height="34" viewBox="0 0 35 34" fill="none" xmlns="http://www.w3.org/2000/svg">
<g id="fi_2097612" clip-path="url(#clip0_7306_504)">
<path id="Vector" d="M13.5309 12.5834H13.1201C10.7286 12.5834 8.77097 14.4756 8.66589 16.8416H17.9851C17.8797 14.4759 15.9221 12.5834 13.5309 12.5834Z" fill="#222B27"/>
<path id="Vector_2" d="M28.9573 0H5.70937C2.7458 0 0.334717 2.60754 0.334717 5.81272V20.4922C0.334717 23.6973 2.7458 26.3048 5.70937 26.3048H12.6893L16.4461 33.4637C16.6191 33.7935 16.9608 34.0001 17.3333 34.0001C17.7057 34.0001 18.0474 33.7935 18.2205 33.4637L21.9773 26.3048H28.9572C31.9208 26.3048 34.3318 23.6973 34.3318 20.4922V5.81272C34.3319 2.60754 31.9208 0 28.9573 0ZM18.1898 18.8457H8.461C7.4665 18.8457 6.65744 18.0366 6.65744 17.0421C6.65744 14.3612 8.29834 12.0566 10.6285 11.0793C9.93971 10.3892 9.51327 9.43733 9.51327 8.38766C9.51327 6.28565 11.2234 4.57548 13.3254 4.57548C15.4274 4.57548 17.1375 6.28565 17.1375 8.38766C17.1375 9.43733 16.711 10.3892 16.0223 11.0793C18.3524 12.0566 19.9933 14.3612 19.9933 17.042C19.9934 18.0365 19.1843 18.8457 18.1898 18.8457ZM26.86 17.1908C26.86 17.6152 26.3428 17.8273 25.8256 17.8273C25.3085 17.8273 24.7912 17.6151 24.7912 17.1908V10.4406L24.4066 10.6794C24.2873 10.7589 24.1679 10.7855 24.0751 10.7855C23.6905 10.7855 23.4252 10.3743 23.4252 9.96323C23.4252 9.68475 23.5446 9.4195 23.8098 9.26038L25.5604 8.19949C25.6665 8.13316 25.7991 8.10664 25.945 8.10664C26.3694 8.10664 26.86 8.3586 26.86 8.75646V17.1908Z" fill="#222B27"/>
<path id="Vector_3" d="M13.3255 10.1959C14.3225 10.1959 15.1337 9.3848 15.1337 8.3877C15.1337 7.39067 14.3225 6.57947 13.3255 6.57947C12.3285 6.57947 11.5173 7.39067 11.5173 8.3877C11.5173 9.3848 12.3285 10.1959 13.3255 10.1959Z" fill="#222B27"/>
</g>
<defs>
<clipPath id="clip0_7306_504">
<rect width="34" height="34" fill="white" transform="translate(0.333374)"/>
</clipPath>
</defs>
</svg>
