<svg width="25" height="25" viewBox="0 0 25 25" fill="none" xmlns="http://www.w3.org/2000/svg">
    <path opacity="0.4" fill-rule="evenodd" clip-rule="evenodd" d="M12.4167 0.521729C9.24039 0.522513 6.19443 1.78485 3.94871 4.03113C1.70299 6.2774 0.441406 9.32367 0.441406 12.5C0.441406 15.6763 1.70299 18.7226 3.94871 20.9688C6.19443 23.2151 9.24039 24.4775 12.4167 24.4782V0.521729Z" fill="#B9E97D"/>
    <path fill-rule="evenodd" clip-rule="evenodd" d="M24.5003 24.4782H12.4167C5.79944 24.4494 0.438429 19.1323 0.438429 12.4999L0.436523 12.4995H12.4168L12.4167 12.4999L12.4367 12.4995H13.0427C16.0717 12.5773 18.9538 13.8211 21.0883 15.9716C23.2229 18.1221 24.4451 21.0134 24.5003 24.0429V24.4782Z" fill="#B9E97D"/>
    <path opacity="0.51" fill-rule="evenodd" clip-rule="evenodd" d="M12.4171 12.4995L0.438752 12.4999C0.433069 14.9751 1.19949 17.3905 2.63125 19.4096C2.64165 19.4242 2.65212 19.4389 2.6625 19.4535C3.77335 21.0047 5.23727 22.2693 6.93338 23.143C8.62948 24.0167 10.5091 24.4744 12.417 24.4782L12.4171 12.4995Z" fill="#F2F4EF"/>
    <circle cx="19.4023" cy="6.51096" r="4.99094" fill="#B9E97D"/>
</svg>
