<svg width="147" height="35" viewBox="0 0 147 35" fill="none" xmlns="http://www.w3.org/2000/svg">
<path d="M133.322 32.1082C126.189 32.1082 120.573 26.749 120.573 19.3076C120.573 11.8661 126.189 6.5752 133.322 6.5752C140.489 6.5752 146.106 11.8661 146.106 19.3076C146.106 26.749 140.489 32.1082 133.322 32.1082ZM133.322 26.3394C137.215 26.3394 139.386 23.1648 139.386 19.3076C139.386 15.4503 137.215 12.344 133.322 12.344C129.428 12.344 127.257 15.4503 127.257 19.3076C127.257 23.1648 129.428 26.3394 133.322 26.3394Z" fill="white"/>
<path d="M90.1117 25.8494V31.6147H72.2534V6.37402H89.8656V12.1393H78.8976V15.7602H88.8462V21.5255H78.8976V25.8494H90.1117Z" fill="white"/>
<path d="M48.1697 6.37402H55.0229L62.2368 17.6998V6.37402H69.09V31.6226H63.391L55.0229 18.4573V31.6226H48.1697V6.37402Z" fill="white"/>
<path opacity="0.4" fill-rule="evenodd" clip-rule="evenodd" d="M16.9941 0.640625C12.4884 0.641738 8.16775 2.43237 4.9822 5.61871C1.79664 8.80505 0.00708008 13.1262 0.00708008 17.6318C0.00708008 22.1374 1.79664 26.4585 4.9822 29.6449C8.16775 32.8312 12.4884 34.6218 16.9941 34.623V0.640625Z" fill="#4537E6"/>
<path fill-rule="evenodd" clip-rule="evenodd" d="M34.1345 34.6231H16.9939C7.6073 34.5822 0.00270321 27.04 0.00270321 17.632L0 17.6313H16.994L16.9939 17.632L17.0223 17.6313H17.8818C22.1785 17.7417 26.2668 19.506 29.2946 22.5565C32.3224 25.607 34.0562 29.7084 34.1345 34.0057V34.6231Z" fill="#4537E6"/>
<path opacity="0.51" fill-rule="evenodd" clip-rule="evenodd" d="M16.9945 17.6313L0.00321834 17.632C-0.00484337 21.143 1.08232 24.5692 3.11328 27.4333C3.12802 27.454 3.14288 27.4749 3.1576 27.4956C4.73335 29.696 6.80993 31.4898 9.21585 32.7292C11.6218 33.9685 14.288 34.6177 16.9944 34.6231L16.9945 17.6313Z" fill="#F8FAFC"/>
<circle cx="26.9031" cy="9.13629" r="7.07965" fill="#4537E6"/>
<path fill-rule="evenodd" clip-rule="evenodd" d="M119.154 31.848C119.154 31.8365 119.154 31.8249 119.154 31.8134C119.154 24.2789 113.538 18.9219 106.37 18.9219C99.2377 18.9219 93.6211 24.2789 93.6211 31.8134C93.6211 31.8249 93.6211 31.8365 93.6211 31.848H100.306C100.306 31.8365 100.306 31.8249 100.306 31.8134C100.306 27.9079 102.477 24.7628 106.37 24.7628C110.264 24.7628 112.435 27.9079 112.435 31.8134C112.435 31.8249 112.435 31.8365 112.435 31.848H119.154Z" fill="#4537E6"/>
<path fill-rule="evenodd" clip-rule="evenodd" d="M119.154 6.31463C119.154 6.32615 119.154 6.33767 119.154 6.34919C119.154 13.8837 113.537 19.2407 106.405 19.2407C99.2376 19.2407 93.621 13.8837 93.621 6.34919C93.621 6.33767 93.6211 6.32615 93.6211 6.31463H100.34C100.34 6.32615 100.34 6.33767 100.34 6.34919C100.34 10.2547 102.511 13.3998 106.405 13.3998C110.298 13.3998 112.469 10.2547 112.469 6.34919C112.469 6.33767 112.469 6.32615 112.469 6.31463H119.154Z" fill="#4537E6"/>
</svg>
