<svg width="23" height="22" viewBox="0 0 23 22" fill="none" xmlns="http://www.w3.org/2000/svg">
<g id="fi_2203512" clip-path="url(#clip0_7306_450)">
<path id="Vector" d="M1.50206 13.7937C0.979131 14.4558 0.666748 15.2916 0.666748 16.1991V19.4003C0.666748 19.756 0.955498 20.0448 1.31128 20.0448H5.22144V18.326C5.22144 16.9579 5.73577 15.7067 6.58183 14.7575C4.91159 15.7717 2.71825 15.387 1.50206 13.7937Z" fill="#222B27"/>
<path id="Vector_2" d="M21.8315 13.7937C20.6153 15.3869 18.422 15.7717 16.7517 14.7575C17.5978 15.7067 18.1121 16.9579 18.1121 18.326V20.0448H22.0223C22.378 20.0448 22.6668 19.756 22.6668 19.4003V16.1991C22.6668 15.2916 22.3544 14.4558 21.8315 13.7937Z" fill="#222B27"/>
<path id="Vector_3" d="M15.1158 15.0079C14.3593 16.1031 13.0955 16.8222 11.6667 16.8222C10.238 16.8222 8.9742 16.103 8.21769 15.0079C7.18472 15.7494 6.5105 16.9604 6.5105 18.3261V20.6893C6.5105 21.0453 6.79908 21.3339 7.15503 21.3339H16.1785C16.5344 21.3339 16.823 21.0453 16.823 20.6893V18.3261C16.823 16.9604 16.1488 15.7494 15.1158 15.0079Z" fill="#222B27"/>
<path id="Vector_4" d="M11.6667 15.5331C13.2686 15.5331 14.5671 14.2345 14.5671 12.6327C14.5671 11.0308 13.2686 9.7323 11.6667 9.7323C10.0649 9.7323 8.76636 11.0308 8.76636 12.6327C8.76636 14.2345 10.0649 15.5331 11.6667 15.5331Z" fill="#222B27"/>
<path id="Vector_5" d="M4.5769 14.0292C6.00076 14.0292 7.15503 12.8749 7.15503 11.451C7.15503 10.0272 6.00076 8.87292 4.5769 8.87292C3.15305 8.87292 1.99878 10.0272 1.99878 11.451C1.99878 12.8749 3.15305 14.0292 4.5769 14.0292Z" fill="#222B27"/>
<path id="Vector_6" d="M18.7566 14.0292C20.1805 14.0292 21.3347 12.8749 21.3347 11.451C21.3347 10.0272 20.1805 8.87292 18.7566 8.87292C17.3327 8.87292 16.1785 10.0272 16.1785 11.451C16.1785 12.8749 17.3327 14.0292 18.7566 14.0292Z" fill="#222B27"/>
<path id="Vector_7" d="M9.62393 6.38046C10.4662 7.13946 11.3 7.64275 11.335 7.6638C11.5392 7.78635 11.7942 7.78635 11.9984 7.6638C12.0334 7.64275 12.8672 7.13941 13.7095 6.38046C14.9201 5.28961 15.5339 4.23215 15.5339 3.23751C15.5339 0.98255 13.2247 -0.0774034 11.6667 1.245C10.1091 -0.0771457 7.79956 0.982163 7.79956 3.23751C7.79956 4.23215 8.41337 5.28961 9.62393 6.38046Z" fill="#222B27"/>
</g>
<defs>
<clipPath id="clip0_7306_450">
<rect width="22" height="22" fill="white" transform="translate(0.666748)"/>
</clipPath>
</defs>
</svg>
