<svg width="23" height="22" viewBox="0 0 23 22" fill="none" xmlns="http://www.w3.org/2000/svg">
<g id="fi_2139004" clip-path="url(#clip0_7306_458)">
<path id="Vector" d="M15.8934 14.5805L22.3334 20.6577V10.3336C20.8242 11.3286 17.1109 13.7776 15.8934 14.5805Z" fill="#222B27"/>
<path id="Vector_2" d="M0.333374 10.3336V20.6577L6.77334 14.5805C1.30017 10.971 3.25687 12.2612 0.333374 10.3336Z" fill="#222B27"/>
<path id="Vector_3" d="M11.6896 17.3529C11.4726 17.4955 11.194 17.4955 10.977 17.3529L7.88278 15.3125L1.3147 21.5109H21.352L14.7839 15.3125L11.6896 17.3529Z" fill="#222B27"/>
<path id="Vector_4" d="M2.65547 7.52063L0.860962 9.13137C2.06039 9.92221 1.65275 9.65351 2.65547 10.3142C2.65547 10.0351 2.65547 7.85676 2.65547 7.52063Z" fill="#222B27"/>
<path id="Vector_5" d="M11.6079 0.587625C11.4485 0.456143 11.2182 0.456143 11.0588 0.587625L9.07556 2.22382H13.5912L11.6079 0.587625Z" fill="#222B27"/>
<path id="Vector_6" d="M20.0114 7.52063V10.3142C21.0117 9.65515 20.6057 9.92268 21.8059 9.13137L20.0114 7.52063Z" fill="#222B27"/>
<path id="Vector_7" d="M18.7172 11.1683V3.94932C18.7172 3.71107 18.5241 3.51794 18.2858 3.51794H4.38096C4.14271 3.51794 3.94958 3.71107 3.94958 3.94932V11.1683L11.3334 16.0377L18.7172 11.1683ZM9.94135 8.12889C9.58417 8.12889 9.29429 7.839 9.29429 7.48183C9.29429 6.33563 10.2365 5.41555 11.3821 5.44316C12.4722 5.46904 13.3462 6.343 13.3716 7.43265C13.3917 8.26274 12.9991 8.70425 12.5425 9.1314C12.1927 9.45324 11.9804 9.89393 11.9804 10.4074C11.9804 10.7631 11.6923 11.0545 11.3334 11.0545C10.975 11.0545 10.6863 10.7637 10.6863 10.4074C10.6863 8.52398 12.0952 8.17591 12.0779 7.46328C12.0689 7.07202 11.7428 6.74634 11.3515 6.73728C10.933 6.7274 10.5884 7.06232 10.5884 7.48183C10.5884 7.83758 10.3009 8.12889 9.94135 8.12889ZM10.6868 12.6661C10.6863 12.6596 10.6863 12.6527 10.6863 12.6462V12.2196C10.6863 11.8624 10.9762 11.5725 11.3334 11.5725C11.6906 11.5725 11.9804 11.8624 11.9804 12.2196V12.6462C11.9804 12.6527 11.9804 12.6596 11.98 12.6661C11.9697 13.0142 11.6841 13.2933 11.3334 13.2933C10.9827 13.2933 10.6971 13.0142 10.6868 12.6661Z" fill="#222B27"/>
</g>
<defs>
<clipPath id="clip0_7306_458">
<rect width="22" height="22" fill="white" transform="translate(0.333374)"/>
</clipPath>
</defs>
</svg>
