<svg width="22" height="22" viewBox="0 0 22 22" fill="none" xmlns="http://www.w3.org/2000/svg">
<g id="fi_2285551" clip-path="url(#clip0_7306_441)">
<path id="Vector" d="M5.59617 5.94116L3.69018 6.08841C3.15982 6.12941 2.68747 6.40737 2.39417 6.85102L0.196033 10.1756C-0.0264148 10.512 -0.0617778 10.9331 0.101373 11.3019C0.264567 11.6707 0.599936 11.9278 0.998468 11.9895L2.74363 12.2598C3.15187 10.0933 4.12915 7.93219 5.59617 5.94116Z" fill="#222B27"/>
<path id="Vector_2" d="M9.74023 19.2564L10.0105 21.0015C10.0723 21.4 10.3293 21.7354 10.6981 21.8986C10.8516 21.9665 11.014 22 11.1756 22C11.4026 22 11.628 21.9338 11.8245 21.8039L15.1491 19.6058C15.5928 19.3125 15.8708 18.8401 15.9117 18.3098L16.0589 16.4038C14.0678 17.8709 11.9067 18.8482 9.74023 19.2564Z" fill="#222B27"/>
<path id="Vector_3" d="M9.08393 18.0467C9.14451 18.0467 9.20544 18.0417 9.26624 18.0316C10.1739 17.8798 11.0487 17.6242 11.8833 17.2895L4.71056 10.1168C4.37592 10.9513 4.12026 11.8261 3.9685 12.7339C3.90868 13.0917 4.02869 13.4562 4.28517 13.7127L8.28742 17.7149C8.50037 17.9278 8.78779 18.0467 9.08393 18.0467Z" fill="#222B27"/>
<path id="Vector_4" d="M20.2459 9.75396C22.0011 6.36057 22.0661 2.7746 21.9744 1.09282C21.943 0.516566 21.4836 0.057148 20.9073 0.0257381C20.6334 0.0107851 20.3089 0 19.9431 0C18.0625 0 15.0869 0.284838 12.2461 1.75423C9.98847 2.92198 7.02807 5.49325 5.28149 8.87238C5.30212 8.88849 5.32227 8.90559 5.34126 8.92458L13.0756 16.6589C13.0946 16.6779 13.1116 16.698 13.1277 16.7186C16.5069 14.972 19.0781 12.0116 20.2459 9.75396ZM12.7917 4.6509C14.0482 3.39446 16.0926 3.39433 17.3492 4.6509C17.9579 5.25955 18.2931 6.06886 18.2931 6.92965C18.2931 7.79043 17.9579 8.59974 17.3492 9.20839C16.721 9.83654 15.8956 10.1507 15.0705 10.1508C14.2451 10.1508 13.4201 9.83672 12.7917 9.20839C12.183 8.59974 11.8478 7.79043 11.8478 6.92965C11.8478 6.06886 12.183 5.25955 12.7917 4.6509Z" fill="#222B27"/>
<path id="Vector_5" d="M13.703 8.29686C14.4569 9.05075 15.6837 9.05079 16.4376 8.29686C16.8028 7.93163 17.0039 7.44608 17.0039 6.9296C17.0039 6.41311 16.8028 5.92757 16.4376 5.56237C16.0607 5.18541 15.5655 4.99695 15.0703 4.99695C14.5752 4.99695 14.08 5.18541 13.7031 5.56237C13.3379 5.92757 13.1367 6.41311 13.1367 6.9296C13.1367 7.44608 13.3379 7.93167 13.703 8.29686Z" fill="#222B27"/>
<path id="Vector_6" d="M0.657736 18.1301C0.822693 18.1301 0.98765 18.0672 1.11346 17.9413L3.21777 15.837C3.46948 15.5853 3.46948 15.1772 3.21777 14.9255C2.9661 14.6738 2.55799 14.6738 2.30628 14.9255L0.201967 17.0298C-0.0497441 17.2815 -0.0497441 17.6896 0.201967 17.9413C0.327822 18.0671 0.492779 18.1301 0.657736 18.1301Z" fill="#222B27"/>
<path id="Vector_7" d="M5.14625 16.8539C4.89458 16.6022 4.48646 16.6022 4.23475 16.8539L0.189027 20.8997C-0.0626836 21.1514 -0.0626836 21.5595 0.189027 21.8112C0.314883 21.937 0.47984 21.9999 0.644797 21.9999C0.809754 21.9999 0.974711 21.937 1.10052 21.8111L5.1462 17.7654C5.39796 17.5137 5.39796 17.1057 5.14625 16.8539Z" fill="#222B27"/>
<path id="Vector_8" d="M6.16317 18.7824L4.0589 20.8867C3.80719 21.1384 3.80719 21.5465 4.0589 21.7982C4.18476 21.9241 4.34971 21.987 4.51463 21.987C4.67954 21.987 4.84454 21.9241 4.97035 21.7982L7.07466 19.6939C7.32637 19.4422 7.32637 19.0341 7.07466 18.7824C6.82299 18.5307 6.41488 18.5307 6.16317 18.7824Z" fill="#222B27"/>
</g>
<defs>
<clipPath id="clip0_7306_441">
<rect width="22" height="22" fill="white"/>
</clipPath>
</defs>
</svg>
