<svg width="104" height="25" viewBox="0 0 104 25" fill="none" xmlns="http://www.w3.org/2000/svg">
<g id="Logo">
<g id="Logo_2">
<g id="Logo_3">
<g id="De o">
<path id="Vector" d="M94.4244 22.5393C89.396 22.5393 85.4365 18.7612 85.4365 13.5152C85.4365 8.26925 89.396 4.53931 94.4244 4.53931C99.477 4.53931 103.437 8.26925 103.437 13.5152C103.437 18.7612 99.477 22.5393 94.4244 22.5393ZM94.4244 18.4725C97.1693 18.4725 98.6997 16.2345 98.6997 13.5152C98.6997 10.796 97.1693 8.60615 94.4244 8.60615C91.6794 8.60615 90.1491 10.796 90.1491 13.5152C90.1491 16.2345 91.6794 18.4725 94.4244 18.4725Z" fill="#161A26"/>
<path id="Vector_2" d="M63.9626 18.1273V22.1916H51.373V4.39771H63.7891V8.46205H56.057V11.0147H63.0704V15.079H56.057V18.1273H63.9626Z" fill="#161A26"/>
<path id="N" d="M34.3948 4.39771H39.2261L44.3116 12.3821V4.39771H49.1429V22.1972H45.1253L39.2261 12.916V22.1972H34.3948V4.39771Z" fill="#161A26"/>
</g>
<g id="img">
<g id="Group">
<path id="Vector_3" opacity="0.4" fill-rule="evenodd" clip-rule="evenodd" d="M12.4167 0.355957C9.24039 0.356741 6.19443 1.61908 3.94871 3.86535C1.70299 6.11163 0.441406 9.15789 0.441406 12.3342C0.441406 15.5105 1.70299 18.5568 3.94871 20.8031C6.19443 23.0493 9.24039 24.3117 12.4167 24.3125V0.355957Z" fill="#4537E6"/>
<path id="Vector_4" fill-rule="evenodd" clip-rule="evenodd" d="M24.5003 24.3124H12.4167C5.79944 24.2836 0.438429 18.9665 0.438429 12.3342L0.436523 12.3337H12.4168L12.4167 12.3342L12.4367 12.3337H13.0427C16.0717 12.4115 18.9538 13.6553 21.0883 15.8058C23.2229 17.9563 24.4451 20.8477 24.5003 23.8772V24.3124Z" fill="#4537E6"/>
<path id="Vector_5" opacity="0.51" fill-rule="evenodd" clip-rule="evenodd" d="M12.4171 12.3337L0.438752 12.3342C0.433069 14.8094 1.19949 17.2247 2.63125 19.2438C2.64165 19.2584 2.65212 19.2731 2.6625 19.2878C3.77335 20.8389 5.23727 22.1036 6.93338 22.9772C8.62948 23.8509 10.5091 24.3086 12.417 24.3124L12.4171 12.3337Z" fill="#F8FAFC"/>
</g>
<circle id="Ellipse 31" cx="19.4023" cy="6.34519" r="4.99094" fill="#4537E6"/>
</g>
</g>
<path id="Subtract" fill-rule="evenodd" clip-rule="evenodd" d="M66.4366 22.3562C66.4365 22.348 66.4365 22.3399 66.4365 22.3318C66.4365 17.0202 70.396 13.2437 75.4244 13.2437C80.477 13.2437 84.4365 17.0202 84.4365 22.3318C84.4365 22.3399 84.4365 22.348 84.4365 22.3562H79.6996C79.6997 22.348 79.6997 22.3399 79.6997 22.3318C79.6997 19.5785 78.1693 17.3613 75.4244 17.3613C72.6794 17.3613 71.1491 19.5785 71.1491 22.3318C71.1491 22.3399 71.1491 22.348 71.1491 22.3562H66.4366Z" fill="#4537E6"/>
<path id="Subtract_2" fill-rule="evenodd" clip-rule="evenodd" d="M84.4365 4.35601C84.4365 4.36412 84.4365 4.37224 84.4365 4.38037C84.4365 9.69193 80.477 13.4685 75.4487 13.4685C70.396 13.4685 66.4365 9.69193 66.4365 4.38037C66.4365 4.37224 66.4365 4.36412 66.4366 4.35601H71.1734C71.1734 4.36412 71.1734 4.37224 71.1734 4.38037C71.1734 7.13361 72.7037 9.35082 75.4487 9.35082C78.1936 9.35082 79.724 7.13361 79.724 4.38037C79.724 4.37224 79.724 4.36412 79.7239 4.35601H84.4365Z" fill="#4537E6"/>
</g>
</g>
</svg>
