<svg width="51" height="50" viewBox="0 0 51 50" fill="none" xmlns="http://www.w3.org/2000/svg">
<g id="fi_5375347">
<g id="Group">
<path id="Vector" d="M6.56787 46.7578C6.56787 48.5484 8.01943 50 9.81006 50H45.8972C46.7062 50 47.362 49.3441 47.362 48.5352V43.5156H9.81006C8.01943 43.5156 6.56787 44.9672 6.56787 46.7578Z" fill="#4537E6"/>
<path id="Vector_2" d="M10.1226 40.5859V0H9.80996C6.40674 0 3.63818 2.76875 3.63818 6.17188V46.7578C3.63818 43.3546 6.40684 40.5859 9.80996 40.5859H10.1226Z" fill="#4537E6"/>
<path id="Vector_3" d="M30.207 9.20557C25.8237 9.20557 22.2578 12.7716 22.2578 17.1548C22.6574 27.686 37.7582 27.6832 38.1562 17.1547C38.1562 12.7715 34.5902 9.20557 30.207 9.20557ZM30.207 11.7674C31.0156 11.7674 31.6719 12.4236 31.6719 13.2322C31.5994 15.1731 28.8144 15.1726 28.7422 13.2322C28.7422 12.4236 29.3984 11.7674 30.207 11.7674ZM31.6719 21.0772C31.5998 23.0187 28.8136 23.0173 28.7422 21.0772V17.9393C28.8143 15.9978 31.6005 15.9992 31.6719 17.9393V21.0772Z" fill="#4537E6"/>
<path id="Vector_4" d="M45.8972 0H13.0522V40.5859H47.3621V1.46484C47.362 0.655859 46.7062 0 45.8972 0ZM39.6212 34.3099H20.7931C18.8516 34.2378 18.853 31.4516 20.7931 31.3802H39.6212C41.5627 31.4522 41.5612 34.2386 39.6212 34.3099ZM30.2071 28.0339C24.2084 28.0339 19.3282 23.1536 19.3282 17.155C19.8751 2.74248 40.5413 2.74639 41.086 17.1551C41.086 23.1536 36.2058 28.0339 30.2071 28.0339Z" fill="#4537E6"/>
</g>
</g>
</svg>
