<svg width="51" height="50" viewBox="0 0 51 50" fill="none" xmlns="http://www.w3.org/2000/svg">
<g id="fi_2076217" clip-path="url(#clip0_3459_193)">
<path id="Vector" d="M29.7107 38.2101C30.1371 37.4854 30.3828 36.6421 30.3828 35.7422C30.3828 33.0498 28.1924 30.8594 25.5 30.8594C22.8076 30.8594 20.6172 33.0498 20.6172 35.7422C20.6172 36.6421 20.8629 37.4854 21.2893 38.2101C19.0297 39.1829 17.4434 41.4309 17.4434 44.043V48.4375C17.4434 49.2465 18.0992 49.9023 18.9082 49.9023H32.0918C32.9008 49.9023 33.5566 49.2465 33.5566 48.4375V44.043C33.5566 41.4309 31.9703 39.1829 29.7107 38.2101Z" fill="#4537E6"/>
<path id="Vector_2" d="M12.865 22.0968C13.2914 21.3721 13.5371 20.5289 13.5371 19.6289C13.5371 16.9365 11.3467 14.7461 8.6543 14.7461C5.96191 14.7461 3.77148 16.9365 3.77148 19.6289C3.77148 20.5152 4.01006 21.3464 4.42461 22.0638C2.12324 23.0179 0.5 25.2874 0.5 27.9297V32.3242C0.5 33.1332 1.15586 33.7891 1.96484 33.7891H15.2461C16.0551 33.7891 16.7109 33.1332 16.7109 32.3242V27.9297C16.7109 25.3176 15.1246 23.0696 12.865 22.0968Z" fill="#4537E6"/>
<path id="Vector_3" d="M46.6541 22.0968C47.0805 21.3721 47.3262 20.5289 47.3262 19.6289C47.3262 16.9365 45.1357 14.7461 42.4434 14.7461C39.751 14.7461 37.5605 16.9365 37.5605 19.6289C37.5605 20.5152 37.7991 21.3464 38.2137 22.0638C35.9123 23.0179 34.2891 25.2874 34.2891 27.9297V32.3242C34.2891 33.1332 34.9449 33.7891 35.7539 33.7891H49.0352C49.8441 33.7891 50.5 33.1332 50.5 32.3242V27.9297C50.5 25.3176 48.9137 23.0696 46.6541 22.0968Z" fill="#4537E6"/>
<path id="Vector_4" d="M29.7107 7.44834C30.1371 6.72363 30.3828 5.88037 30.3828 4.98047C30.3828 2.28809 28.1924 0.0976562 25.5 0.0976562C22.8076 0.0976562 20.6172 2.28809 20.6172 4.98047C20.6172 5.88037 20.8629 6.72363 21.2893 7.44834C19.0297 8.42119 17.4434 10.6691 17.4434 13.2812V17.6758C17.4434 18.4848 18.0992 19.1406 18.9082 19.1406H32.0918C32.9008 19.1406 33.5566 18.4848 33.5566 17.6758V13.2812C33.5566 10.6691 31.9703 8.42119 29.7107 7.44834Z" fill="#4537E6"/>
<path id="Vector_5" d="M40.9297 38.1836C40.9297 40.6067 38.9583 42.5781 36.5352 42.5781H36.3698C36.513 43.4763 36.4864 43.9684 36.4864 45.5078C40.6897 45.5078 43.8594 42.1258 43.8594 38.1836V36.7188H40.9297V38.1836Z" fill="#4537E6"/>
<path id="Vector_6" d="M33.25 5.95703H36.5351C38.9583 5.95703 40.9296 7.92842 40.9296 10.3516V11.9648C41.8886 11.7758 42.8651 11.7645 43.8593 11.9474V10.3516C43.8593 6.31299 40.5737 3.02734 36.5351 3.02734H33.0652C33.3034 3.94932 33.3785 4.94131 33.25 5.95703Z" fill="#4537E6"/>
<path id="Vector_7" d="M10.1191 11.9562V10.3516C10.1191 7.92842 12.0905 5.95703 14.5137 5.95703H17.7499C17.6291 5.00127 17.6814 4.00811 17.9348 3.02734H14.5137C10.4751 3.02734 7.18945 6.31299 7.18945 10.3516V11.9562C8.1667 11.7699 9.14102 11.7698 10.1191 11.9562Z" fill="#4537E6"/>
<path id="Vector_8" d="M10.1191 38.1836V36.7188H7.18945V38.1836C7.18945 42.2222 10.4751 45.5078 14.5137 45.5078C14.5137 43.9671 14.4871 43.4756 14.6303 42.5781H14.5137C12.0905 42.5781 10.1191 40.6067 10.1191 38.1836Z" fill="#4537E6"/>
</g>
<defs>
<clipPath id="clip0_3459_193">
<rect width="50" height="50" fill="white" transform="translate(0.5)"/>
</clipPath>
</defs>
</svg>
