<svg width="51" height="50" viewBox="0 0 51 50" fill="none" xmlns="http://www.w3.org/2000/svg">
<g id="fi_4291894" clip-path="url(#clip0_3459_175)">
<g id="Group">
<path id="Vector" d="M27.9415 25.9771V8.30127C27.9415 5.87812 25.9701 3.90674 23.547 3.90674H4.89453C2.47139 3.90674 0.5 5.87812 0.5 8.30127V25.9771C0.5 28.4002 2.47139 30.3716 4.89453 30.3716H7.09189L9.58213 33.6918C10.1683 34.4733 11.341 34.4717 11.9259 33.6918L14.4161 30.3716H23.547C25.9701 30.3716 27.9415 28.4002 27.9415 25.9771ZM20.2854 23.1439C19.7135 23.7159 18.7858 23.7161 18.2138 23.1439L17.6709 22.6011C16.6672 23.2409 15.4773 23.6134 14.2014 23.6134C10.6314 23.6134 7.72705 20.7091 7.72705 17.1392C7.72705 13.5691 10.6314 10.6648 14.2014 10.6648C17.7714 10.6648 20.6757 13.5692 20.6757 17.1392C20.6757 18.3741 20.3277 19.5293 19.7252 20.5123L20.2853 21.0724C20.8574 21.6444 20.8574 22.5719 20.2854 23.1439Z" fill="#4537E6"/>
<path id="Vector_2" d="M14.2014 13.5947C12.2469 13.5947 10.6567 15.1849 10.6567 17.1394C10.6567 19.6405 13.1884 21.3538 15.5043 20.4348L15.0085 19.939C14.4364 19.367 14.4364 18.4395 15.0085 17.8674C15.5805 17.2953 16.508 17.2953 17.0801 17.8674L17.5404 18.3277C18.3622 16.0258 16.6453 13.5947 14.2014 13.5947Z" fill="#4537E6"/>
<path id="Vector_3" d="M35.8867 29.9913H37.6876L36.7913 27.6162L35.8867 29.9913Z" fill="#4537E6"/>
<path id="Vector_4" d="M46.1056 15.7227H30.8713V25.9771C30.8713 30.0157 27.5856 33.3014 23.5471 33.3014H23.0586V37.793C23.0586 40.2161 25.03 42.1875 27.4531 42.1875H36.5838L39.074 45.5077C39.6603 46.2893 40.8329 46.2875 41.4178 45.5077L43.908 42.1875H46.1056C48.5287 42.1875 50.5001 40.2161 50.5001 37.793V20.1172C50.5001 17.694 48.5287 15.7227 46.1056 15.7227ZM41.2517 35.2868C40.4976 35.5714 39.6507 35.1934 39.364 34.4336L38.7932 32.921H34.7708L34.1932 34.4377C33.9053 35.1938 33.0588 35.5732 32.3029 35.2853C31.5469 34.9974 31.1675 34.151 31.4554 33.395L35.2174 23.5172C35.4559 22.8874 36.0694 22.4333 36.7947 22.4325C37.4803 22.4318 38.0975 22.8397 38.3611 23.4809C38.3739 23.512 38.2065 23.0695 42.1048 33.399C42.3905 34.1561 42.0085 35.0012 41.2517 35.2868Z" fill="#4537E6"/>
</g>
</g>
<defs>
<clipPath id="clip0_3459_175">
<rect width="50" height="50" fill="white" transform="translate(0.5)"/>
</clipPath>
</defs>
</svg>
